<svg width="859" height="275" viewBox="0 0 859 275" fill="none" xmlns="http://www.w3.org/2000/svg">
<path d="M130.012 270.439L130.029 270.56H89.2168C84.0376 270.56 78.5569 271.024 73.4309 270.508C73.289 267.392 73.8921 264.001 73.9985 260.817C74.1759 254.551 74.2114 248.303 74.1936 242.037C74.1581 227.062 73.8921 212.052 72.9698 197.093C72.7037 192.807 72.4022 188.504 71.8523 184.235C71.5686 181.963 71.4267 179.26 70.3092 177.143C69.7416 176.007 68.9967 174.888 67.7551 174.372C66.0169 173.666 63.9062 174.544 62.7533 175.921C61.6181 177.315 61.2456 179.071 60.9264 180.792C58.1062 195.32 59.1527 210.881 59.2236 225.564C59.2768 240.092 58.5142 256.049 58.3368 270.56C57.716 270.56 27.1375 270.267 14.6684 270.439H0V0.379127C18.4287 0.379127 36.7332 1.22258 55.02 0.00043379C55.5698 -0.0512062 56.9001 0.964381 56.9533 1.36029C57.3967 5.16443 57.308 37.9042 57.379 44.9961C57.6273 62.9496 57.8579 80.817 57.7692 98.7361C57.6983 113.608 57.9998 128.05 59.3478 142.837C59.5252 144.696 59.8799 146.606 61.0683 148.121C62.2567 149.636 64.5625 150.548 66.4248 149.791C70.3979 148.19 70.3447 140.651 70.6817 137.191C71.1783 132.268 71.4444 127.327 71.6572 122.387C72.1893 110.458 72.349 98.5124 72.2958 86.5663C72.2958 84.8278 72.4909 58.2504 71.0719 58.2504H127.919L109.65 143.112L134.02 270.422H129.994L130.012 270.439Z" fill="#191919"/>
<path d="M419.283 270.439L419.301 270.559H378.488C373.309 270.559 367.828 271.024 362.702 270.508C362.561 267.392 363.164 264.001 363.27 260.816C363.447 254.551 363.483 248.302 363.465 242.037C363.43 227.061 363.164 212.051 362.241 197.093C361.975 192.807 361.674 188.503 361.124 184.234C360.84 181.962 360.698 179.26 359.581 177.142C359.013 176.006 358.268 174.887 357.027 174.371C355.288 173.665 353.178 174.543 352.025 175.92C350.89 177.315 350.517 179.07 350.198 180.792C347.378 195.32 348.424 210.881 348.495 225.563C348.548 240.092 347.786 256.048 347.608 270.559C346.987 270.559 316.409 270.267 303.94 270.439H289.271V0.378639C307.7 0.378639 326.005 1.20488 344.291 -5.44913e-05C344.841 -0.0516945 346.172 0.963892 346.225 1.3598C346.668 5.16395 346.58 37.9037 346.65 44.9956C346.899 62.9491 347.129 80.8166 347.041 98.7356C346.97 113.608 347.271 128.05 348.619 142.836C348.797 144.695 349.151 146.606 350.34 148.121C351.528 149.635 353.834 150.548 355.696 149.79C359.669 148.19 359.616 140.65 359.953 137.19C360.45 132.267 360.716 127.327 360.929 122.387C361.461 110.458 361.62 98.5119 361.567 86.5658C361.567 84.8273 361.762 58.2499 360.343 58.2499H417.19L398.921 143.112L423.292 270.421H419.266L419.283 270.439Z" fill="#191919"/>
<path d="M52.9625 270.438H14.6685C27.1375 270.266 40.0323 269.956 52.9625 270.438Z" fill="#191919"/>
<path d="M14.6685 270.438C10.1987 270.508 5.79998 270.56 1.47217 270.56V270.438H14.6685Z" fill="#191919"/>
<path d="M205.11 274.312C190.211 274.312 177.299 269.871 166.32 261.006C155.358 252.141 146.88 239.403 140.938 222.809C134.978 206.216 131.999 186.73 131.999 164.353C131.999 141.976 134.978 122.49 140.938 105.896C146.898 89.3027 155.358 76.582 166.32 67.7C177.281 58.8179 190.211 54.394 205.11 54.394C220.009 54.394 232.922 58.8351 243.901 67.7C254.862 76.582 263.323 89.3027 269.282 105.896C275.242 122.49 278.222 141.976 278.222 164.353C278.222 186.73 275.242 206.216 269.282 222.809C263.323 239.403 254.862 252.124 243.901 261.006C232.939 269.888 220.009 274.312 205.11 274.312ZM194.574 234.669C199.133 235.237 203.053 230.538 206.334 220.572C209.615 210.605 213.198 192.875 217.047 167.4C220.896 141.924 222.723 123.97 222.528 113.574C222.333 103.159 219.956 97.6684 215.398 97.1003C210.839 96.5323 206.919 101.232 203.62 111.198C200.321 121.165 196.756 138.894 192.907 164.37C189.058 189.846 187.214 207.799 187.426 218.196C187.622 228.61 189.998 234.101 194.574 234.669Z" fill="#191919"/>
<path d="M495.499 274.312C480.6 274.312 467.688 269.871 456.709 261.006C445.747 252.141 437.269 239.403 431.327 222.809C425.367 206.216 422.388 186.73 422.388 164.353C422.388 141.976 425.367 122.49 431.327 105.896C437.287 89.3027 445.747 76.582 456.709 67.7C467.67 58.8179 480.6 54.394 495.499 54.394C510.398 54.394 523.311 58.8351 534.29 67.7C545.269 76.5648 553.712 89.3027 559.672 105.896C565.631 122.49 568.611 141.976 568.611 164.353C568.611 186.73 565.631 206.216 559.672 222.809C553.712 239.403 545.252 252.124 534.29 261.006C523.329 269.888 510.398 274.312 495.499 274.312ZM485.088 233.155C489.646 233.723 493.566 229.023 496.847 219.057C500.129 209.09 503.712 191.361 507.56 165.885C511.409 140.409 513.236 122.456 513.041 112.059C512.846 101.645 510.469 96.1536 505.911 95.5856C501.353 95.0175 497.433 99.7168 494.134 109.683C490.835 119.65 487.269 137.38 483.42 162.855C479.572 188.331 477.727 206.285 477.94 216.681C478.135 227.095 480.512 232.587 485.088 233.155Z" fill="#191919"/>
<path d="M785.889 274.312C770.989 274.312 758.077 269.871 747.098 261.006C736.136 252.141 727.658 239.403 721.716 222.809C715.757 206.216 712.777 186.73 712.777 164.353C712.777 141.976 715.757 122.49 721.716 105.896C727.676 89.3027 736.136 76.582 747.098 67.7C758.059 58.8179 770.989 54.394 785.889 54.394C800.788 54.394 813.7 58.8351 824.679 67.7C835.658 76.5648 844.101 89.3027 850.061 105.896C856.02 122.49 859 141.976 859 164.353C859 186.73 856.02 206.216 850.061 222.809C844.101 239.403 835.641 252.124 824.679 261.006C813.718 269.888 800.788 274.312 785.889 274.312ZM775.353 234.669C779.911 235.237 783.831 230.538 787.13 220.572C790.411 210.605 793.994 192.875 797.843 167.4C801.692 141.924 803.519 123.97 803.324 113.574C803.129 103.159 800.734 97.6684 796.176 97.1003C791.618 96.5323 787.698 101.232 784.399 111.198C781.117 121.165 777.534 138.894 773.686 164.37C769.837 189.846 767.992 207.799 768.205 218.196C768.4 228.61 770.777 234.101 775.353 234.669Z" fill="#191919"/>
<path d="M711.003 94.6216C711.003 101.834 710.577 109.253 709.761 116.844C708.946 124.452 708.005 130.58 706.923 135.211H654.138V121.681C654.138 116.018 653.589 111.714 652.507 108.754C651.425 105.776 649.935 104.295 648.055 104.295C646.174 104.295 644.33 105.655 642.574 108.358C640.8 111.06 639.257 114.882 637.909 119.77V270.473H581.044V75.377C581.044 70.454 580.033 60.9523 580.459 56.0809C580.459 55.9604 586.064 56.1497 586.702 56.1325C590.587 56.0293 594.454 55.9604 598.338 55.8743C604.652 55.7538 610.967 55.6506 617.299 55.5473C619.498 55.5129 621.715 55.4784 623.915 55.444C624.34 55.444 626.132 55.6678 626.486 55.4096C626.557 67.3212 626.948 83.5534 628.047 95.4822C628.225 97.3241 628.562 99.2519 629.786 100.767C630.992 102.247 633.28 103.211 635.16 102.436C639.133 100.836 639.062 93.2961 639.417 89.8362C640.516 78.8025 637.43 63.0006 649.846 56.4252C653.979 54.2391 658.927 53.7915 663.716 53.585C672.833 53.189 682.269 53.4817 690.996 56.1842C694.916 57.3891 699.882 59.1621 702.56 62.1056C705.646 65.4966 707.509 69.7999 708.626 74.0344C710.347 80.5755 711.092 87.9084 711.092 94.6216H711.003Z" fill="#191919"/>
</svg>
